<svg width="100" height="99.993" xmlns="http://www.w3.org/2000/svg"><g stroke-width="1.0725"><path d="M100 49.991a49.614 49.614 0 0 1-5.9953 23.734 47.758 47.758 0 0 1-2.9816 4.8477 49.485 49.485 0 0 1-11.39 11.68s-.05362 0-.07507.06435c-.28958.2145-.57915.429-.87945.62205a49.979 49.979 0 0 1-62.001-3.668 51.577 51.577 0 0 1-4.8906-5.03q-1.0725-1.2012-1.9627-2.4775a50 50 0 1 1 90.176-29.773z" fill="#fde68a"/><path d="M65.144 38.13c-.78292-3.4964-3.4213-5.888-5.8988-5.3625l-1.287.19305a3.4106 3.4106 0 0 0-.46118.06435c-2.4775.5577-3.8503 3.8396-3.0674 7.3359.78293 3.4964 3.4213 5.8773 5.8988 5.3625l1.287-.19305a2.2952 2.2952 0 0 0 .46118-.07507c2.4775-.54698 3.8503-3.8288 3.0674-7.3252z" fill="#46467f"/><path d="M94.005 73.726a47.758 47.758 0 0 1-2.9816 4.8477 49.485 49.485 0 0 1-11.39 11.68s-.05362 0-.07507.06435c-.28958.2145-.57915.429-.87945.62205a49.979 49.979 0 0 1-62.001-3.668 51.577 51.577 0 0 1-4.8906-5.03q-1.0725-1.2012-1.9627-2.4775c7.9472-9.5667 14.94-11.497 14.94-11.497-.22522-.24668-2.6813-3.1424 0-8.3548 3.5285-6.8855 14.489-11.143 14.489-11.143l19.305-1.1476a22.694 22.694 0 0 1 14.168 7.5075c4.9871 5.7057 4.097 9.3308 3.625 10.435a1.5551 1.5551 0 0 1-.1716.35392 124.41 124.41 0 0 1 17.825 7.8078z" fill="#7772d3"/><path d="M76.394 65.575a60.875 60.875 0 0 1-19.509 7.7113c-16.967 3.743-32.121-5.0193-32.121-5.0193-.22522-.24668-2.6813-3.1424 0-8.3548 3.5285-6.8855 14.489-11.143 14.489-11.143l19.305-1.1476a22.694 22.694 0 0 1 14.168 7.5075c5.03 5.7164 4.1399 9.3415 3.668 10.446z" fill="#9393e5"/><path d="M42.063 61.478s-7.6684-4.0004-7.2072-6.3385c.46118-2.3381 7.8936-3.9039 12.666-3.0137s16.088 1.0725 16.088 5.148c0 3.6251-5.1695 7.1107-5.1695 7.1107l-10.918-3.1317z" fill="#7772d3"/><path d="m41.817 49.487.26812 11.991s2.2415 3.3998 9.2664 3.8181c5.2445.31102 7.0571-.91163 7.0571-.91163l-.86872-6.0596-.84728-5.9095-12.731-2.5096z" fill="#fca397"/><path d="M43.962 49.906a4.0541 4.0541 0 0 0 .37538 1.1476c2.8207 5.9417 10.189 7.0678 13.213 7.2716l-.84728-5.9095z"/><path d="M58.741 25.002s6.6281 14.908 4.29 23.316c-2.338 8.4084-9.9635 7.1429-14.543 5.5556a15.208 15.208 0 0 1-6.671-4.3865 6.435 6.435 0 0 1-7.1536-2.4775c-2.885-3.9575-1.1583-8.58 1.2763-9.6525 2.4346-1.0725 5.3625.67568 5.3625.67568l-2.3059-4.29s9.3951-22.115 19.745-8.7409z" fill="#fca397"/><path d="M58.172 44.06a.41828.41828 0 0 1-.16088 0 .53625.53625 0 0 1-.35392-.66495c.84728-2.7242-1.1905-5.6735-1.2119-5.7057a.53625.53625 0 1 1 .86872-.62205c.09652.13942 2.3702 3.4106 1.3728 6.6388a.53625.53625 0 0 1-.5148.35392zM40.637 45.144a.50408.50408 0 0 1-.37538-.16088l-4.0648-4.29a.52553.52553 0 0 1 0-.7293.50408.50408 0 0 1 .7293 0l4.0648 4.29a.52553.52553 0 0 1 0 .7293.54698.54698 0 0 1-.35392.16088z"/><path d="M36.336 43.953a.52553.52553 0 0 1-.5148-.43972.5148.5148 0 0 1 .43972-.57915l2.81-.429a.50408.50408 0 0 1 .57915.429.5148.5148 0 0 1-.429.58988l-2.7671.429zM41.27 38.087a1.8554 1.8554 0 0 0 2.692-.74003c1.1261-1.7482-1.3299-6.9391-1.3299-6.9391s4.6332 1.0725 7.5075-.4719 4.29-5.7486 4.29-5.7486 2.145 4.3865 8.4191 2.456c6.2741-1.9305 7.5075-10.521.78292-12.28s-10.435 1.2334-10.435 1.2334-.84728-6.242-9.1913-3.2175c-7.5933 2.81-8.8803 12.323-8.8803 12.323a6.0167 6.0167 0 0 0-5.4376 5.1802c-.87945 4.955 4.9335 8.58 4.9335 8.58a7.9472 7.9472 0 0 1 6.6495-.37538zM51.405 38.483a.53625.53625 0 0 1-.53625-.46118l-.35392-2.7885a.53625.53625 0 0 1 .46118-.6006.52553.52553 0 0 1 .6006.46118l.35392 2.7885a.52553.52553 0 0 1-.46118.6006zM59.674 37.829a.54698.54698 0 0 1-.53625-.46118l-.40755-2.7778a.54698.54698 0 0 1 .45045-.61132.54698.54698 0 0 1 .61132.45045l.40755 2.7778a.53625.53625 0 0 1-.45045.61132z"/><path d="M48.809 33.153a.49335.49335 0 0 1-.24668-.06435.53625.53625 0 0 1-.23595-.71858c1.0725-2.0163 3.5822-1.4908 3.6787-1.4693a.5577.5577 0 0 1 .41828.6435.52553.52553 0 0 1-.63278.40755c-.0858 0-1.8554-.36465-2.5097.91163a.53625.53625 0 0 1-.4719.28958zM56.832 31.426a.54698.54698 0 0 1-.3003-.09652.53625.53625 0 0 1-.13942-.74002 2.3059 2.3059 0 0 1 1.6302-1.0725 3.743 3.743 0 0 1 2.6062.96525.52553.52553 0 0 1 .05362.75075.54698.54698 0 0 1-.76148.05363 2.7242 2.7242 0 0 0-1.7696-.69712 1.2334 1.2334 0 0 0-.86872.58988.53625.53625 0 0 1-.45045.24668z"/></g><g fill="#46467f"><g stroke-width="1.0725"><path d="M50.397 75.152c-15.905-.89018-22.083-4.5367-22.34-4.6976a.53625.53625 0 1 1 .5577-.91163c.06435 0 6.2527 3.668 21.815 4.5367a.53625.53625 0 0 1 0 1.0725zM50.783 93.288a.54698.54698 0 0 1-.53625-.5577l.43972-12.87a.5577.5577 0 0 1 .5577-.5148.53625.53625 0 0 1 .5148.54698l-.43972 12.87a.54698.54698 0 0 1-.53625.52552zM71.782 89.352a.53625.53625 0 0 1-.46118-.26812l-6.4243-10.811a.54698.54698 0 0 1 .18232-.74002.54698.54698 0 0 1 .74003.19305l6.435 10.854a.54698.54698 0 0 1-.19305.74002.63278.63278 0 0 1-.27885.03217zM71.782 68.803a.55148.55148 0 0 1-.2574-1.0725l4.4509-2.3273a.54698.54698 0 0 1 .71858.22522.53625.53625 0 0 1-.22522.7293l-4.4402 2.338a.49335.49335 0 0 1-.24668.10725zM44.562 42.505c.46118 3.55-1.2119 6.6924-3.7216 7.0142-2.5097.32175-4.9228-2.2952-5.3625-5.8559-.43972-3.5607 1.2119-6.6924 3.7216-7.0142 2.5096-.32175 4.912 2.2952 5.3625 5.8559z"/></g><path d="m40.840799 49.519455 1.898325-2.048475.546975-7.132125-4.09695-3.6894-1.73745.353925 1.65165 12.87z"/></g><g stroke-width="1.0725"><path d="M42.825 42.881c.46118 3.5607-1.2119 6.7031-3.7216 7.0249-2.5097.32175-4.9228-2.3059-5.3625-5.8559-.43973-3.55 1.2226-6.6924 3.7323-7.0142 2.5097-.32175 4.9013 2.263 5.3518 5.8451z" fill="#fff"/><path d="M36.186 20.712a14.071 14.071 0 0 0-2.456 4.29c-.53625 2.027 2.6062 14.811 2.6062 14.811l3.9683-.9009z" fill="#fff"/><path d="M54.622 48.243a4.526 4.526 0 0 1-3.6787-2.145.53625.53625 0 0 1 .18232-.74002.54698.54698 0 0 1 .74002.19305 3.314 3.314 0 0 0 3.4856 1.5766.55275.55275 0 0 1 .26812 1.0725 4.172 4.172 0 0 1-.99743.0429z"/></g></svg>