<svg width="100" height="100.01" xmlns="http://www.w3.org/2000/svg"><g stroke-width="1.0725"><path d="M100 49.995a50.064 50.064 0 0 1-55.245 49.743c-1.1261-.11798-2.2415-.27885-3.3462-.4719-1.1047-.19305-2.4239-.4719-3.6143-.7722l-.6864-.1716a47.533 47.533 0 0 1-5.5985-1.8554 49.335 49.335 0 0 1-9.0734-4.7405c-.87945-.57915-1.7482-1.1905-2.5847-1.8233a49.432 49.432 0 0 1-4.7619-4.1077 50 50 0 1 1 84.91-35.8z" fill="#fbcfe8"/><path d="M37.688 28.32s-4.7834 4.0112-5.2445 8.0438l-.45045 4.0219a12.312 12.312 0 0 0-7.5075 8.7623c-2.3488 9.4058 4.0648 12.677 4.0648 12.677l49.796 5.3625a15.776 15.776 0 0 0 4.7297-13.353c-1.169-8.2475-5.9953-10.864-5.9953-10.864a19.648 19.648 0 0 0-1.8769-10.628 11.261 11.261 0 0 0-9.3951-6.1991z"/><path d="M89.361 80.819a50.118 50.118 0 0 1-44.605 18.919c-1.1261-.11798-2.2415-.27885-3.3462-.4719-1.1047-.19305-2.4239-.4719-3.6143-.7722l-.6864-.1716a47.533 47.533 0 0 1-5.5985-1.8554 49.335 49.335 0 0 1-9.0734-4.7405c.10725-2.6705.28958-4.1828.28958-4.1828l8.0759-25.472.79365-2.5097a6.671 6.671 0 0 1 2.7134-3.6036 6.317 6.317 0 0 1 2.145-.93308c1.4801-.3432 3.3248-.71858 5.4161-1.0725l2.0914-.33248c2.145-.3003 4.5474-.53625 7.0034-.6435 1.4801-.06435 2.9601-.07508 4.4509 0l1.9949.09652c.7722.06435 1.5337.13942 2.3059.22522s1.7053.23595 2.5526.40755a31.692 31.692 0 0 1 5.6092 1.5766c4.7512 1.8554 8.8803 5.6735 12.28 9.9528a76.652 76.652 0 0 1 9.2021 15.583z" fill="#507849"/><path d="M57.518 50.692s3.5071 1.1476 4.5689 2.7778c1.1905 1.834-1.0725 6.6388-7.3788 10.382a35.285 35.285 0 0 1-8.58 3.7001s-4.0326-5.577-4.8048-8.9661c-.7722-3.3891 2.0592-7.8293 2.0592-7.8293z" fill="#fcb35b"/><path d="M38.975 34.583s-4.2042-6.435-4.172-9.5882c.03217-3.1532 10.553-14.275 21.557-11.186 11.004 3.0888 13.943 16.42 12.495 22.362-3.5929 15.283-17.01 10.725-17.01 10.725s-20.635-2.7778-12.87-12.312z"/><path d="M43.404 50.478v.27885l.87945 5.2338.75075 4.0648s-.23595 1.0082 4.5367.10725c6.435-1.2227 8.1188-4.29 8.1188-4.29l-.9009-9.6525-1.8983.61133z" fill="#f27e64"/><path d="m43.436 50.757.87945 5.2338c3.0781-.75075 8.58-2.7992 10.317-8.0009a3.9146 3.9146 0 0 0 .20378-1.0725l-11.39 3.7645z"/><path d="M38.342 25.81s-4.29 14.436-1.2334 21.879c3.0566 7.4432 9.9635 5.3625 13.943 3.3677a13.943 13.943 0 0 0 5.6521-4.8048 5.9524 5.9524 0 0 0 6.2634-3.1103c2.145-3.9683 0-7.958-2.2952-8.6444s-4.8263 1.2548-4.8263 1.2548l1.6088-4.29s-11.208-19.123-19.112-5.6521z" fill="#f27e64"/><path d="M41.034 43.249a.5577.5577 0 0 1-.49335-.31102c-1.2977-2.8529.40755-6.1347.48263-6.2741a.53625.53625 0 1 1 .9438.49335s-1.523 2.9708-.45045 5.3625a.52553.52553 0 0 1-.2574.70785.5577.5577 0 0 1-.22522.02145zM57.229 42.198a.5577.5577 0 0 1-.31102-.09652.53625.53625 0 0 1-.11798-.75075l3.2175-4.4187a.53625.53625 0 0 1 .75075-.11798.52553.52553 0 0 1 .11798.75075l-3.2175 4.4187a.54698.54698 0 0 1-.43973.2145z"/><path d="m61.036 40.643-2.6384-.06435a.54698.54698 0 0 1-.52553-.54698.53625.53625 0 0 1 .54698-.52553l2.6276.06435a.53625.53625 0 0 1 0 1.0725zM44.155 48.322a1.405 1.405 0 0 1-.4719-.07507c-1.1798-.36465-1.8662-2.0485-1.9412-2.2308a.53625.53625 0 0 1 .26812-.67568l5.1695-2.4453a.53625.53625 0 0 1 .75075.6435c0 .13943-1.0725 3.3891-2.7671 4.4938a1.7696 1.7696 0 0 1-1.0082.28958zm-1.2012-2.2094a2.3488 2.3488 0 0 0 1.0082 1.0725.56843.56843 0 0 0 .5148-.10725 6.8747 6.8747 0 0 0 1.8554-2.692zM48.338 32.17a.5577.5577 0 0 1-.45045-.23595c-.7293-1.0725-2.3273-.52553-2.3488-.52553a.53625.53625 0 1 1-.35392-1.0082c.09652 0 2.3917-.82583 3.5929.92235a.54698.54698 0 0 1-.43973.84728zM36.615 32.095a.52553.52553 0 0 1-.40755-.87945 3.4535 3.4535 0 0 1 2.3059-1.1905 2.145 2.145 0 0 1 1.6517.79365.52553.52553 0 0 1 0 .75075.53625.53625 0 0 1-.76148 0 1.0725 1.0725 0 0 0-.83655-.429 2.456 2.456 0 0 0-1.5122.83655.52553.52553 0 0 1-.43973.11798z"/><path d="M55.877 35.752s-6.3599-2.2952-9.0734-6.3278-3.0781-6.1776-3.0781-6.1776-.5148 2.9387-2.6062 3.8825a16.634 16.634 0 0 1-3.432 1.1905l-.87945 4.1935-.32175-9.6525s5.5019-3.9146 6.2956-4.0112c.79365-.09652 10.982.40755 11.637.93308.65422.52553 4.7941 7.8722 4.7941 7.8722l.66495 3.4427z"/><path d="M48.252 35.506a.5577.5577 0 0 1-.49335-.31102c-.2145-.46118-.4719-.71858-.78293-.78293a2.456 2.456 0 0 0-1.7267.7293.53866.53866 0 1 1-.74003-.78293 3.5178 3.5178 0 0 1 2.6705-.99743 2.145 2.145 0 0 1 1.5551 1.3835.52553.52553 0 0 1-.26813.70785.49335.49335 0 0 1-.2145.05363zM37.527 35.538a.61133.61133 0 0 1-.19305 0 .54698.54698 0 0 1-.31102-.69712c.39682-1.0725.93308-1.5873 1.598-1.6302 1.0725-.0858 1.8233 1.2227 1.8983 1.3621a.52553.52553 0 0 1-.19305.7293.54698.54698 0 0 1-.74003-.19305c-.19305-.35393-.62205-.86873-.89018-.83655-.26812.03218-.40755.26812-.66495.95453a.54698.54698 0 0 1-.50408.31102z"/><path d="M57.218 51.379s-6.8211 6.435-10.811 6.435-3.432-3.2819-3.432-3.2819l.65423 7.6684 3.55 1.1798 8.816-3.55 4.9442-5.5448z" fill="#fcb35b"/><path d="M50 63.766a22.834 22.834 0 0 1 3.6143 10.511c.6006 6.435-3.121 13.621-3.121 13.621s-5.9738-6.7675-6.7675-11.883c-.79365-5.1158 1.952-12.366 1.952-12.366a58.226 58.226 0 0 0-3.3784 9.9206c-.67568 3.7645-1.598 8.58-1.598 8.58s-3.6251-4.8048-3.3998-10.511 6.3278-9.438 6.3278-9.438z" fill="#fcb35b"/><path d="M49.239 65.654a17.9 17.9 0 0 1-4.0755-.66495h-.07507a.58988.58988 0 0 1-.27885-.27885c-.35393-.858-2.145-5.1909-.97598-6.746a1.4479 1.4479 0 0 1 1.405-.57915 1.6838 1.6838 0 0 1 1.3835.82582c.9009 1.4693-.09653 4.5903-.58988 5.9202a10.843 10.843 0 0 0 4.0433.3861c.96525-.27885 1.5122-3.6036 1.0725-5.4805a.52553.52553 0 0 1 .40755-.63278.54698.54698 0 0 1 .6435.41828c.3432 1.6946.11798 6.1454-1.8876 6.7246a4.4509 4.4509 0 0 1-1.0725.10725zm-4.2042-7.2287a.37538.37538 0 0 0-.35392.15015c-.45045.62205 0 2.6169.6006 4.3651.49335-1.5551.86873-3.432.40755-4.1935a.67568.67568 0 0 0-.5577-.32175z" fill="#f7734f"/><path d="M49.045 74.341a1.4586 1.4586 0 0 1-1.1583-.5577c-1.4264-1.7804-.09652-7.8829.05362-8.58a.5577.5577 0 0 1 .49335-.41828.53625.53625 0 0 1 .53625.35393c.40755 1.1369 2.4131 6.8855 1.2012 8.58a1.3299 1.3299 0 0 1-1.0725.57915zm-.43972-6.864c-.35393 2.263-.50408 4.8477.11798 5.6306a.36465.36465 0 0 0 .32175.16088.2574.2574 0 0 0 .24668-.11798c.50408-.7293.03218-3.3248-.6864-5.6735z" fill="#f7734f"/><path d="m37.795 98.483-.6864-.1716a47.533 47.533 0 0 1-5.5985-1.8554 49.335 49.335 0 0 1-9.0734-4.7405c-.87945-.57915-1.7482-1.1905-2.5847-1.8233a49.432 49.432 0 0 1-4.7619-4.097c0-.13942.05363-.27885.0858-.41828 2.7349-12.377 7.9258-19.959 12.216-24.41a23.595 23.595 0 0 1 7.604-5.3625c0 .1287-.6435.2574-.6864.39682a26.577 26.577 0 0 0-.62205 6.435c-.03217 9.1484 2.0699 23.906 4.1077 36.047z" fill="#507849"/></g></svg>