<svg width="100" height="99.947" xmlns="http://www.w3.org/2000/svg"><g stroke-width="1.0725"><path d="M100 49.968a49.882 49.882 0 0 1-7.3145 26.062c-.80438 1.3192-1.6731 2.5847-2.5847 3.8181a50.987 50.987 0 0 1-8.4406 8.8267c-1.169.95453-2.381 1.8662-3.6358 2.7134-.92235.62205-1.8662 1.2227-2.8314 1.7804a49.689 49.689 0 0 1-18.072 6.2956 47.962 47.962 0 0 1-6.124.48262h-.99743a50.247 50.247 0 0 1-11.722-1.3085 49.743 49.743 0 0 1-15.23-6.4994 44.981 44.981 0 0 1-4.8155-3.5607 48.799 48.799 0 0 1-5.9953-5.8237c-.83655-.97598-1.6517-1.9734-2.4131-3.003l-.49335-.66495a50 50 0 1 1 90.669-29.118z" fill="#bbf7d0"/><path d="M81.66 88.674c-1.169.95453-2.381 1.8662-3.6358 2.7134-.92235.62205-1.8662 1.2227-2.8314 1.7804a49.689 49.689 0 0 1-18.072 6.2956 47.962 47.962 0 0 1-6.124.48262h-.99743a50.247 50.247 0 0 1-11.722-1.3085 49.743 49.743 0 0 1-15.23-6.4994 44.981 44.981 0 0 1-4.8155-3.5607 48.799 48.799 0 0 1-5.9953-5.8237c-.83655-.97598-1.6517-1.9734-2.4131-3.003 3.4106-8.0759 9.6525-19.648 18.136-22.523 13.374-4.4616 41.828 1.8233 41.828 1.8233s9.8241 4.7834 11.873 29.622z" fill="#46467f"/><path d="M75.193 93.168a49.689 49.689 0 0 1-18.072 6.2956 47.962 47.962 0 0 1-6.124.48262h-.99743a50.247 50.247 0 0 1-11.722-1.3085 49.743 49.743 0 0 1-15.23-6.4994 44.981 44.981 0 0 1-4.8155-3.5607c.0858-13.074 1.0725-25.021 4.2364-27.885a19.991 19.991 0 0 1 5.4912-3.432 41.527 41.527 0 0 1 13.245-2.9065c2.263-.15015 3.7323-.09652 3.7323-.09652s3.0352.11798 7.1107.56843c1.1261.13942 2.263.27885 3.4535.45045 6.9391.99743 15.015 2.9387 17.16 6.6066 1.8447 3.1639 2.4131 17.289 2.5311 31.285z" fill="#46467f"/><path d="M59.599 28.078s6.435-10.961 1.0725-13.31-11.798 3.668-11.798 3.668-12.055 1.0725-16.624 7.5075c-4.5689 6.435 6.6924 17.782 6.6924 17.782z" fill="#fcb35b"/><path d="m41.077 46.171-.6864 11.1s1.8125 3.3248 8.2797 4.29c4.8155.6864 6.5744-.3003 6.5744-.3003l-.32175-5.6628-.33248-5.5234-11.572-3.3462z" fill="#f27e64"/><path d="M43.018 46.729a3.9361 3.9361 0 0 0 .2574 1.0725c2.145 5.695 8.8589 7.3037 11.647 7.7327l-.33248-5.5234z"/><path d="M58.623 24.871s4.9657 14.275 2.1986 21.868c-2.7671 7.5933-9.749 5.8344-13.867 4.0112a14.05 14.05 0 0 1-5.8773-4.5796 5.9738 5.9738 0 0 1-6.435-2.8421c-2.3702-3.8717-.40755-7.9687 1.9198-8.7623 2.3273-.79365 4.8906 1.0725 4.8906 1.0725l-1.7696-4.2042s10.414-19.67 18.94-6.5637z" fill="#f27e64"/><path d="M40.755 41.667a.5148.5148 0 0 1-.3432-.11798l-4.7834-3.9039a.53625.53625 0 0 1-.07508-.75075.52553.52553 0 0 1 .75075-.07507l4.7512 3.9039a.52553.52553 0 0 1 .07507.75075.5148.5148 0 0 1-.37538.19305z"/><path d="M36.165 41.334a.52553.52553 0 0 1-.52553-.43973.54698.54698 0 0 1 .41828-.63278l3.3462-.6435a.53625.53625 0 0 1 .63278.429.52553.52553 0 0 1-.429.62205l-3.3462.65423zM49.003 30.845a.53625.53625 0 0 1-.35392-.1287.54698.54698 0 0 1 0-.76148 3.5285 3.5285 0 0 1 4.5581-.87945.56541.56541 0 1 1-.65422.92235 2.4453 2.4453 0 0 0-3.2175.67568.53625.53625 0 0 1-.33248.1716zM59.792 30.384a.50408.50408 0 0 1-.36465-.13942 2.145 2.145 0 0 0-2.3381-.3861.53625.53625 0 0 1-.71858-.23595.54698.54698 0 0 1 .23595-.71858 3.2175 3.2175 0 0 1 3.55.5577.53625.53625 0 0 1-.36465.92235zM57.272 40.841a.50408.50408 0 0 1-.18232 0 .53625.53625 0 0 1-.32175-.6864c1.4157-3.8932-.48262-6.1562-.50408-6.1776a.53978.53978 0 0 1 .8151-.70785c.09652.11798 2.3273 2.7778.69713 7.2501a.5577.5577 0 0 1-.50408.32175zM59.406 35.725a.54698.54698 0 0 1-.52552-.429l-.53625-2.5955a.54698.54698 0 0 1 .41828-.63278.53625.53625 0 0 1 .63278.41828l.53625 2.5847a.53625.53625 0 0 1-.40755.6435zM51.298 35.907a.53625.53625 0 0 1-.52552-.429l-.53625-2.5847a.54687.54687 0 1 1 1.0725-.2145l.53625 2.5847a.53625.53625 0 0 1-.41828.63278z"/><path d="M59.599 28.078a4.719 4.719 0 0 0-3.8288-2.4989 6.0275 6.0275 0 0 0-4.5045 1.6624s.91163 4.7405-3.003 7.0463c-3.9146 2.3059-6.7889 1.3728-6.7889 1.3728l-2.6705-1.1368-1.7589-4.1184 8.4191-8.033 10.564-4.7726 4.9228 5.0515z" fill="#fcb35b"/><path d="M54.204 45.088a4.29 4.29 0 0 1-3.9897-2.6276.53625.53625 0 0 1 .99743-.3861 3.2175 3.2175 0 0 0 3.0137 1.9412.53625.53625 0 1 1 0 1.0725z"/><path d="M52.22 62.377c-7.2716 0-12.806-5.03-13.074-5.2767a.53892.53892 0 0 1 .7293-.79365c.07507.07508 7.3252 6.6495 15.744 4.5903a.53625.53625 0 0 1 .6435.39682.5148.5148 0 0 1-.3861.6435 15.133 15.133 0 0 1-3.6572.43972z" fill="#fff"/></g></svg>